Coordinates
version=1
nRows=17
nColumns=40
inDegrees=yes

Units are S.I. units (second, meters, Newtons, ...)
Angles are in degrees.

endheader
time	pelvis_tilt	pelvis_list	pelvis_rotation	pelvis_tx	pelvis_ty	pelvis_tz	hip_flexion_r	hip_adduction_r	hip_rotation_r	knee_angle_r	knee_angle_r_beta	ankle_angle_r	subtalar_angle_r	mtp_angle_r	hip_flexion_l	hip_adduction_l	hip_rotation_l	knee_angle_l	knee_angle_l_beta	ankle_angle_l	subtalar_angle_l	mtp_angle_l	lumbar_extension	lumbar_bending	lumbar_rotation	arm_flex_r	arm_add_r	arm_rot_r	elbow_flex_r	pro_sup_r	wrist_flex_r	wrist_dev_r	arm_flex_l	arm_add_l	arm_rot_l	elbow_flex_l	pro_sup_l	wrist_flex_l	wrist_dev_l
     14.38000000	     -4.48906486	     -4.57040423	     -3.62680773	      1.02731811	      0.93378522	      0.41481722	     35.27240069	     -4.76849163	     -3.20588056	     66.11109453	     66.11109453	      0.06684549	    -16.84862924	      2.76795390	     15.38038725	     -6.26629749	     -8.91036778	     20.72319102	     20.72319102	     11.19202586	    -11.05041486	     -1.79189339	    -12.65222254	      6.15872996	      2.02366386	      4.40163616	    -14.01032459	     -4.27224168	     64.64296273	     45.35169346	      0.00000000	      0.00000000	      7.21966020	    -16.03202488	      3.76173512	     52.62157189	     46.03823338	      0.00000000	      0.00000000
     14.39114286	     -4.34965831	     -4.53949247	     -4.00987681	      1.02672739	      0.93474538	      0.41460662	     35.87145363	     -4.80247482	     -3.38598365	     63.84762882	     63.84762882	      0.22832575	    -16.52609447	      2.58199367	     14.16827819	     -6.08414705	     -9.07143951	     19.85837804	     19.85837804	     11.35064672	    -11.32067153	     -1.59226330	    -12.83187510	      6.24799100	      2.77422878	      1.98693468	    -14.60182975	     -4.43092776	     61.29191999	     45.46253979	      0.00000000	      0.00000000	      9.27056342	    -16.22423638	      3.32740462	     54.53372831	     46.13135511	      0.00000000	      0.00000000
     14.40228571	     -4.26682154	     -4.49057297	     -4.36141828	      1.02597728	      0.93558101	      0.41445947	     36.34836657	     -4.79859367	     -3.54586402	     61.25876424	     61.25876424	     -0.16067479	    -16.24976087	      1.36269942	     13.09909282	     -5.89115988	     -9.17103576	     19.08594371	     19.08594371	     11.29554769	    -11.68543871	     -1.76354317	    -12.92997523	      6.25407044	      2.52694971	      1.67906447	    -13.98953491	     -6.05036335	     54.17638836	     45.76694480	      0.00000000	      0.00000000	     10.30747859	    -16.96451417	      2.93779842	     57.50203066	     46.27301514	      0.00000000	      0.00000000
     14.41342857	     -4.16340925	     -4.53662553	     -4.71264741	      1.02528498	      0.93624286	      0.41446231	     36.65875402	     -4.62990386	     -3.72911828	     58.52278618	     58.52278618	     -0.11168458	    -15.65827072	      1.31124056	     12.04444770	     -5.84563526	     -9.42693177	     18.40652787	     18.40652787	     11.52915567	    -11.62948960	     -1.75031406	    -13.13296537	      6.38757767	      3.17166594	     -0.32111883	    -14.47077062	     -6.23658138	     50.91755771	     45.87687568	      0.00000000	      0.00000000	     12.19505113	    -17.04815199	      2.28349533	     59.62520450	     46.38714371	      0.00000000	      0.00000000
     14.42457143	     -4.13277300	     -4.61435839	     -4.95613778	      1.02450481	      0.93673028	      0.41451926	     36.83440903	     -4.46278360	     -4.06045713	     55.47410339	     55.47410339	     -0.34491088	    -14.96000372	      0.56999939	     11.13098884	     -5.82233327	     -9.54027864	     17.76926106	     17.76926106	     11.59387921	    -11.72944915	     -1.98208602	    -13.14151829	      6.54952925	      2.65743551	      0.08784934	    -13.90782192	     -7.79779484	     43.31709237	     46.20431626	      0.00000000	      0.00000000	     13.05638695	    -17.79999682	      1.29845996	     62.56999880	     46.57386656	      0.00000000	      0.00000000
     14.43571429	     -4.10955430	     -4.70229026	     -5.18888755	      1.02365850	      0.93700909	      0.41469197	     36.91096516	     -4.24755442	     -4.38698958	     52.28421372	     52.28421372	     -0.29352840	    -13.84178875	      0.67000378	     10.28584041	     -5.84074525	     -9.72842103	     17.24560136	     17.24560136	     11.82792402	    -11.63448092	     -2.00501736	    -13.26763511	      6.75881606	      3.14532915	     -1.79747725	    -14.27373843	     -7.98173682	     40.82270240	     46.28847857	      0.00000000	      0.00000000	     14.88365369	    -17.86275722	      0.57716458	     64.58794952	     46.68511776	      0.00000000	      0.00000000
     14.44685714	     -4.11055481	     -4.77944166	     -5.37177273	      1.02281917	      0.93708340	      0.41499536	     36.84768061	     -4.03882037	     -4.78376821	     48.86542543	     48.86542543	     -0.22596623	    -12.44364258	      0.57868227	      9.50162020	     -5.86120191	     -9.89847967	     16.75972064	     16.75972064	     12.03668827	    -11.51978861	     -2.15246582	    -13.35786040	      6.90655315	      3.50022177	     -3.12430415	    -14.40811037	     -8.40555285	     37.32873418	     46.42776041	      0.00000000	      0.00000000	     16.53736550	    -17.99059458	     -0.08180951	     66.95086962	     46.79820013	      0.00000000	      0.00000000
     14.45800000	     -4.21854382	     -4.89113865	     -5.45966609	      1.02198715	      0.93692819	      0.41542459	     36.63303758	     -3.77815893	     -5.27826712	     45.04805227	     45.04805227	     -0.45287436	    -11.03518530	     -0.25895507	      8.88238268	     -5.94289711	     -9.98274763	     16.33014716	     16.33014716	     12.10580985	    -11.45561099	     -2.66392321	    -13.23285710	      7.09357311	      2.59596177	     -2.39881078	    -13.99493444	    -10.17534873	     30.94114026	     46.75779040	      0.00000000	      0.00000000	     16.99783399	    -18.83371599	     -1.37566289	     70.08941078	     47.00214809	      0.00000000	      0.00000000
     14.46914286	     -4.28140384	     -4.99616740	     -5.50791506	      1.02126980	      0.93665526	      0.41590377	     36.24374606	     -3.53100942	     -5.84761177	     41.14650909	     41.14650909	     -0.28339418	     -9.19136746	     -0.02053833	      8.25398089	     -6.02606196	    -10.07116207	     15.99834422	     15.99834422	     12.40009849	    -11.26415010	     -2.80277873	    -13.22541875	      7.31552198	      2.82512734	     -4.22219161	    -14.21126646	    -10.33029443	     29.59758217	     46.80346988	      0.00000000	      0.00000000	     18.68673253	    -18.90453071	     -1.92229005	     71.85643864	     47.08731352	      0.00000000	      0.00000000
     14.48028571	     -4.34408217	     -4.97347761	     -5.55455640	      1.02069942	      0.93616715	      0.41653266	     35.73548510	     -3.39072291	     -6.42551663	     37.15277876	     37.15277876	     -0.12172795	     -7.08051483	      0.12613947	      7.58780748	     -5.98425190	    -10.26340208	     15.59869479	     15.59869479	     12.68274861	    -10.92548086	     -3.10207109	    -13.17571058	      7.31288492	      3.07809226	     -5.85882343	    -14.25853064	    -10.58488389	     27.77428616	     46.87757795	      0.00000000	      0.00000000	     20.29219480	    -18.97724672	     -2.40358734	     74.20171043	     47.18255417	      0.00000000	      0.00000000
     14.49142857	     -4.39125579	     -4.98940325	     -5.53020127	      1.02039927	      0.93556576	      0.41725803	     34.99012481	     -3.17872412	     -7.08233246	     33.00517777	     33.00517777	     -0.01323192	     -5.07091565	      0.26166864	      6.91104879	     -5.99586691	    -10.41700228	     15.22303572	     15.22303572	     12.81550286	    -10.62569895	     -3.80215797	    -13.08994816	      7.35949627	      2.60665211	     -6.45450550	    -14.14713867	    -11.68993630	     24.81743907	     47.06189359	      0.00000000	      0.00000000	     21.05135075	    -19.53574043	     -3.26975048	     77.19423433	     47.36269630	      0.00000000	      0.00000000
     14.50257143	     -4.41565698	     -4.91559110	     -5.48819786	      1.02032950	      0.93480499	      0.41805687	     34.13819226	     -3.04383820	     -7.80376605	     28.97433293	     28.97433293	      0.27486928	     -2.93371911	      1.07258744	      6.19180255	     -5.90423386	    -10.57017617	     14.84435464	     14.84435464	     13.14466587	    -10.23936291	     -4.09304653	    -12.99982117	      7.30670587	      2.77638740	     -8.21142399	    -14.13333227	    -11.83743512	     23.88886846	     47.09179349	      0.00000000	      0.00000000	     22.59028526	    -19.58884256	     -3.55404197	     79.14426042	     47.44328099	      0.00000000	      0.00000000
     14.51371429	     -4.39501234	     -4.84835530	     -5.38148153	      1.02048051	      0.93394473	      0.41892500	     33.12719988	     -2.85546515	     -8.49645292	     25.07226849	     25.07226849	      0.47094488	     -1.16966844	      2.06159681	      5.44457467	     -5.81881073	    -10.62826657	     14.52424416	     14.52424416	     13.51874470	     -9.91258922	     -4.38222093	    -12.90154325	      7.26818033	      2.76190786	     -9.90691417	    -14.11989905	    -11.86994758	     23.16505471	     47.10727522	      0.00000000	      0.00000000	     24.00141168	    -19.71242351	     -3.76005221	     80.85173894	     47.50404711	      0.00000000	      0.00000000
     14.52485714	     -4.31416707	     -4.60369579	     -5.28779383	      1.02093623	      0.93288199	      0.41992691	     32.19089923	     -2.90978202	     -9.38014494	     21.84884493	     21.84884493	      1.16049163	      0.88378732	      3.83498916	      4.56297134	     -5.56073901	    -10.91934542	     14.08850057	     14.08850057	     13.84456781	     -9.26564269	     -4.87917461	    -12.85149291	      6.94826101	      2.89086639	    -11.69885791	    -13.96498868	    -11.87438785	     22.78496670	     47.09940830	      0.00000000	      0.00000000	     25.29966891	    -19.85753619	     -3.75342774	     83.28396673	     47.57832334	      0.00000000	      0.00000000
     14.53600000	     -4.21810896	     -4.46165789	     -5.14855844	      1.02156189	      0.93177238	      0.42107475	     31.15375499	     -2.78804266	    -10.14469596	     18.91466008	     18.91466008	      1.63320879	      2.19798019	      5.41605383	      3.70178662	     -5.41138593	    -11.01266126	     13.75493199	     13.75493199	     14.22904387	     -8.85956867	     -5.19993422	    -12.76578329	      6.78791735	      2.89497668	    -13.40580328	    -13.82619127	    -11.81409140	     22.54099912	     47.08161309	      0.00000000	      0.00000000	     26.54751442	    -20.01363806	     -3.82375959	     85.04991183	     47.63661425	      0.00000000	      0.00000000
     14.54714286	     -4.23548514	     -4.19302077	     -5.00298207	      1.02222418	      0.93033440	      0.42237722	     30.36324491	     -2.76936719	    -10.74921639	     16.62054428	     16.62054428	      1.93984930	      3.00450242	      6.47919794	      3.01453062	     -5.15023156	    -11.05768956	     13.49348060	     13.49348060	     14.63044359	     -8.52947371	     -5.44766432	    -12.49102196	      6.42794402	      2.76757389	    -14.89928403	    -13.57610018	    -11.75390783	     22.34443082	     47.06502048	      0.00000000	      0.00000000	     27.77542736	    -20.17106940	     -3.90163508	     86.46822633	     47.68183116	      0.00000000	      0.00000000
     14.55828571	     -4.06776070	     -4.04566215	     -4.82753680	      1.02322475	      0.92911250	      0.42374327	     29.40796609	     -2.71633678	    -11.57848587	     14.97033586	     14.97033586	      2.44445721	      3.83629030	      7.73533592	      2.01803399	     -5.00685501	    -11.15946140	     13.10190489	     13.10190489	     15.08111141	     -7.99156926	     -5.68081758	    -12.48525885	      6.24059273	      2.91122631	    -16.68794094	    -13.38726527	    -11.65450764	     22.48633504	     47.02345488	      0.00000000	      0.00000000	     28.79551748	    -20.12186012	     -3.70885723	     88.35487946	     47.72316840	      0.00000000	      0.00000000
